<?xml version="1.0" encoding="UTF-8"?>
<svg id="OBJECTS" xmlns="http://www.w3.org/2000/svg" viewBox="0 0 442.18 432.18">
  <defs>
    <style>
      .cls-1 {
        fill: #fff;
      }

      .cls-2 {
        fill: #1a1a1a;
      }
    </style>
  </defs>
  <path class="cls-2" d="M179.29,288.4l-47.76,13.51c-2.12.6-4.07-1.38-3.43-3.5l14.26-47.05c.47-1.55-.48-3.18-2.06-3.53L2.18,216.82c-2.93-.66-2.9-4.85.05-5.46l138.68-28.43c1.59-.33,2.57-1.93,2.13-3.49l-13.38-47.31c-.6-2.12,1.38-4.07,3.5-3.43l47.49,14.39c1.55.47,3.18-.48,3.53-2.06L215.36,2.18c.66-2.93,4.85-2.9,5.46.05l28.51,139.08c.33,1.59,1.93,2.57,3.49,2.13l46.63-13.18c2.12-.6,4.07,1.38,3.43,3.5l-14.18,46.81c-.47,1.55.48,3.18,2.06,3.53l139.25,31.26c2.93.66,2.9,4.85-.05,5.46l-139.8,28.65c-1.59.33-2.57,1.93-2.13,3.49l13.3,47.08c.6,2.12-1.38,4.07-3.5,3.43l-46.37-14.06c-1.55-.47-3.18.48-3.53,2.06l-31.1,138.52c-.66,2.93-4.85,2.9-5.46-.05l-28.57-139.42c-.33-1.59-1.93-2.57-3.49-2.13Z"/>
  <path class="cls-1" d="M239.45,273.6l-38.28,10.83c-1.7.48-3.26-1.11-2.75-2.8l11.43-37.72c.38-1.24-.38-2.55-1.65-2.83l-110.73-24.86c-2.35-.53-2.32-3.89.04-4.38l111.18-22.79c1.27-.26,2.06-1.55,1.7-2.8l-10.72-37.92c-.48-1.7,1.11-3.26,2.8-2.75l38.08,11.54c1.24.38,2.55-.38,2.83-1.65l24.99-111.31c.53-2.35,3.89-2.32,4.38.04l22.85,111.5c.26,1.27,1.55,2.06,2.8,1.7l37.38-10.57c1.7-.48,3.26,1.11,2.75,2.8l-11.37,37.53c-.38,1.24.38,2.55,1.65,2.83l111.63,25.06c2.35.53,2.32,3.89-.04,4.38l-112.07,22.97c-1.27.26-2.06,1.55-1.7,2.8l10.66,37.74c.48,1.7-1.11,3.26-2.8,2.75l-37.18-11.27c-1.24-.38-2.55.38-2.83,1.65l-24.94,111.04c-.53,2.35-3.89,2.32-4.38-.04l-22.9-111.77c-.26-1.27-1.55-2.06-2.8-1.7Z"/>
</svg>